:SAMPLES-PER-SECOND 30
:FULLY-SPECIFIED
:DEGREES
302
root  -23.9734 29.5623 1.7123 18.6281 10.4362 -3.42027
RightUpLeg  -59.7512 9.2964 -8.95308
RightLeg  54.4022 8.86365 10.615
RightFoot  -1.07077 0.00155488 0.544299
RightToes  -52.0973 -0.321592 -0.372788
Spine  18.9963 0.351663 2.81073
Spine1  33.0231 1.34481 1.84008
HEad  -2.92372 20.7406 -16.066
LeftShoulder1  0 -2.42657e-020 -4.95415e-022
LeftArm  -24.2582 -20.1841 -82.398
LeftForeArm  18.2621 -34.8972 -7.06124
LeftHand  -0.0613544 -6.78762 0.665305
RightShoulder  0 2.42657e-020 1.07489e-018
RightArm  -6.4834 36.961 74.7171
RightForeArm  70.7384 53.7714 13.8786
RightHand  -7.71835 25.2534 -33.1546
LeftUpLeg  -59.1828 34.5037 8.20706
LeftLeg  50.7123 8.54188 9.05219
LeftFoot  -15.2215 -0.56928 -4.25853
LeftToes  -19.0129 2.34596e-006 -6.06653e-008
303
root  -24.0932 28.3806 1.66131 18.2856 16.3521 -2.66817
RightUpLeg  -61.421 7.11403 -10.7483
RightLeg  60.6239 7.40402 11.117
RightFoot  -8.0561 -0.0822075 -0.789888
RightToes  -55.4846 -0.352429 -0.384919
Spine  20.6582 1.19444 3.8212
Spine1  35.3845 3.69132 2.10175
HEad  -3.72339 18.4981 -16.3452
LeftShoulder1  0 -2.42657e-020 -4.95415e-022
LeftArm  -21.0665 -25.7684 -85.5518
LeftForeArm  20.9058 -35.519 -7.22781
LeftHand  -0.077315 -6.09835 1.08262
RightShoulder  0 2.42657e-020 1.07489e-018
RightArm  -9.02071 42.462 72.7513
RightForeArm  70.4632 42.8507 9.34246
RightHand  -8.82847 26.0582 -36.5352
LeftUpLeg  -65.3652 33.6832 2.96971
LeftLeg  59.1453 6.31792 9.0746
LeftFoot  -17.4283 -0.664299 -4.33204
LeftToes  -11.7292 2.34596e-006 -6.06653e-008
304
root  -24.2575 27.1937 1.29077 19.8475 20.243 -3.12863
RightUpLeg  -66.843 3.15391 -9.4309
RightLeg  67.6747 5.64132 11.2577
RightFoot  -10.8008 -0.135049 -1.05101
RightToes  -52.8135 -0.328052 -0.375505
Spine  21.4188 2.72809 4.93964
Spine1  36.2537 7.10853 3.58364
HEad  -3.91308 15.5504 -15.2301
LeftShoulder1  0 -2.42657e-020 -4.95415e-022
LeftArm  -16.8874 -30.3809 -90.2313
LeftForeArm  22.5798 -36.1251 -7.39237
LeftHand  -0.0956185 -6.65911 1.27484
RightShoulder  0 2.42657e-020 1.07489e-018
RightArm  -18.2667 47.914 69.2454
RightForeArm  70.5478 29.6751 5.68699
RightHand  -8.30332 25.3792 -35.3733
LeftUpLeg  -72.7149 30.6141 2.66837
LeftLeg  65.7332 5.97991 11.0963
LeftFoot  -24.3225 -1.39222 -6.45393
LeftToes  -6.72987 2.34596e-006 -6.06653e-008
305
root  -24.3918 26.316 1.07185 20.979 23.6512 -3.4427
RightUpLeg  -70.2005 1.20159 -9.20308
RightLeg  72.042 4.16141 10.1794
RightFoot  -13.23 -0.160734 -1.00844
RightToes  -52.6796 -0.326842 -0.375003
Spine  22.7014 3.80146 6.01682
Spine1  37.9883 9.38169 5.47454
HEad  -5.34152 12.3015 -14.1898
LeftShoulder1  0 -2.42657e-020 -4.95415e-022
LeftArm  -12.1131 -34.9567 -93.9472
LeftForeArm  22.1501 -36.9373 -7.61686
LeftHand  -0.0302326 -7.39106 0.0982175
RightShoulder  0 2.42657e-020 1.07489e-018
RightArm  -36.4188 53.0409 62.6557
RightForeArm  63.6201 19.8781 3.59635
RightHand  -5.7204 24.0274 -26.061
LeftUpLeg  -78.2153 26.6643 3.41265
LeftLeg  68.5151 2.68259 5.67384
LeftFoot  -17.7061 -0.503048 -3.22889
LeftToes  -9.52796 2.34596e-006 -6.06653e-008
306
root  -24.1563 25.8076 0.928307 21.4902 27.7108 -2.19797
RightUpLeg  -70.6983 -2.13879 -10.3475
RightLeg  75.1849 3.23701 9.34157
RightFoot  -15.226 -0.171785 -0.907683
RightToes  -52.4645 -0.325954 -0.374633
Spine  24.3176 3.48135 7.15222
Spine1  40.3059 9.06908 6.89261
HEad  -6.28537 10.0162 -14.0623
LeftShoulder1  0 -2.42657e-020 -4.95415e-022
LeftArm  -9.1821 -38.6632 -95.9687
LeftForeArm  22.3587 -37.975 -7.91101
LeftHand  -0.010678 -7.9424 -0.216324
RightShoulder  0 2.42657e-020 1.07489e-018
RightArm  -67.5336 56.6707 50.796
RightForeArm  45.9482 9.47528 1.66853
RightHand  -2.1072 20.9293 -11.0058
LeftUpLeg  -80.3937 21.0071 3.59037
LeftLeg  70.4587 1.9588 4.53849
LeftFoot  -16.9745 -0.430546 -2.88466
LeftToes  -5.28987 2.34596e-006 -6.06653e-008
307
root  -23.873 25.8551 0.720874 21.5497 30.6944 -2.8717
RightUpLeg  -69.7052 -4.44145 -9.80615
RightLeg  74.4761 2.94042 8.14877
RightFoot  -15.3991 -0.148204 -0.718661
RightToes  -52.0881 -0.325224 -0.374328
Spine  24.5435 3.02336 8.06126
Spine1  40.6652 7.86549 8.69197
HEad  -7.02524 9.51096 -13.8522
LeftShoulder1  0 -2.42657e-020 -4.95415e-022
LeftArm  -8.54697 -39.2726 -95.5809
LeftForeArm  22.7124 -39.3987 -8.32894
LeftHand  -0.0598043 -7.88325 0.498413
RightShoulder  0 2.42657e-020 1.07489e-018
RightArm  -84.7083 53.3677 45.8037
RightForeArm  32.5271 8.95764 1.59012
RightHand  -0.747784 20.2087 -3.82556
LeftUpLeg  -81.08 16.7546 5.35548
LeftLeg  70.7131 2.57719 6.03973
LeftFoot  -17.6158 -0.548759 -3.54045
LeftToes  -4.70638 2.34596e-006 -6.06653e-008
308
root  -23.4285 26.3024 0.521415 21.4215 32.6623 -4.35553
RightUpLeg  -67.6609 -5.37722 -9.04182
RightLeg  71.1595 2.98294 6.97322
RightFoot  -14.3131 -0.109588 -0.495258
RightToes  -52.0202 -0.324435 -0.373996
Spine  23.8265 2.59114 8.35628
Spine1  39.7445 6.84946 9.42184
HEad  -7.47766 10.6284 -13.3474
LeftShoulder1  0 -2.42657e-020 -4.95415e-022
LeftArm  -10.3124 -37.2148 -93.4464
LeftForeArm  21.7918 -41.056 -8.83821
LeftHand  -0.0539525 -8.12048 0.390435
RightShoulder  0 2.42657e-020 1.07489e-018
RightArm  -82.009 48.7339 47.83
RightForeArm  23.0176 13.7451 2.47024
RightHand  0.681873 22.2985 3.82986
LeftUpLeg  -80.8106 13.7392 6.6989
LeftLeg  68.7498 1.08373 2.31489
LeftFoot  -16.8497 -0.328637 -2.2186
LeftToes  -4.07202 2.34596e-006 -6.06653e-008
309
root  -22.6487 27.0085 0.393489 20.7879 33.5256 -5.1839
RightUpLeg  -63.751 -5.5865 -9.46323
RightLeg  66.2526 3.1945 5.99952
RightFoot  -12.5107 -0.0643731 -0.209738
RightToes  -52.2948 -0.323371 -0.373546
Spine  23.0434 2.03633 7.79298
Spine1  38.7518 5.90926 8.57858
HEad  -7.58108 12.9838 -13.4461
LeftShoulder1  0 -2.42657e-020 -4.95415e-022
LeftArm  -13.262 -33.9576 -90.0635
LeftForeArm  21.5125 -41.8471 -9.09072
LeftHand  -0.0511649 -8.24814 0.339931
RightShoulder  0 2.42657e-020 1.07489e-018
RightArm  -69.5917 43.2477 51.7536
RightForeArm  16.7427 20.3838 3.75195
RightHand  1.05464 23.4897 5.44093
LeftUpLeg  -78.6218 12.7215 5.97658
LeftLeg  65.4602 -0.434863 -0.823229
LeftFoot  -11.5484 -0.11076 -1.09529
LeftToes  -4.09051 2.34596e-006 -6.06653e-008
310
root  -21.5497 27.8333 0.301999 19.3681 32.8126 -5.29602
RightUpLeg  -58.1117 -3.28214 -11.6451
RightLeg  60.115 2.67561 3.93631
RightFoot  -10.3116 -0.0090389 0.27739
RightToes  -52.1082 -0.321691 -0.37283
Spine  22.1965 1.69488 6.49653
Spine1  37.5488 5.05765 7.45802
HEad  -5.31437 13.9183 -13.8525
LeftShoulder1  0 -2.42657e-020 -4.95415e-022
LeftArm  -16.0365 -30.3187 -87.3842
LeftForeArm  21.9667 -40.3122 -8.60645
LeftHand  -0.0706297 -7.88755 0.6551
RightShoulder  0 2.42657e-020 1.07489e-018
RightArm  -63.2633 37.3601 56.6162
RightForeArm  13.6991 28.3898 5.46291
RightHand  1.83203 25.1361 8.5763
LeftUpLeg  -73.7324 13.0057 4.41036
LeftLeg  60.8718 -1.37536 -2.143
LeftFoot  -1.87343 -0.0152001 -0.929648
LeftToes  -9.7077 2.34596e-006 -6.06653e-008
311
root  -20.4278 28.7359 0.154263 18.0575 31.9645 -5.86162
RightUpLeg  -52.7827 4.07631 -14.6867
RightLeg  53.5953 -2.03594 -2.47474
RightFoot  -8.42603 0.0709308 1.34054
RightToes  -44.4364 -0.254857 -0.338787
Spine  20.1542 1.48952 5.01721
Spine1  34.6951 4.50528 5.66884
HEad  -1.98758 16.6173 -14.6368
LeftShoulder1  0 -2.42657e-020 -4.95415e-022
LeftArm  -19.6514 -24.3719 -85.2694
LeftForeArm  20.7549 -38.985 -8.20549
LeftHand  -0.0150386 -7.19225 -0.130791
RightShoulder  0 2.42657e-020 1.07489e-018
RightArm  -53.2805 29.8049 62.6109
RightForeArm  9.2099 39.0536 8.22295
RightHand  1.10123 22.5905 5.88102
LeftUpLeg  -69.2506 13.5941 2.91154
LeftLeg  56.7514 -1.70128 -2.27124
LeftFoot  -0.493248 -0.00283623 -0.658908
LeftToes  -9.21211 2.34596e-006 -6.06653e-008
312
root  -19.345 29.6585 0.0850343 16.5033 31.2311 -5.70224
RightUpLeg  -48.7879 11.4881 -15.5159
RightLeg  51.7476 -10.1272 -11.1156
RightFoot  -12.0696 0.360619 3.78789
RightToes  -5.30318 -0.0154983 -0.0494966
Spine  18.2066 0.870038 3.53349
Spine1  32.1539 3.85385 2.2359
HEad  1.55531 21.7014 -15.7759
LeftShoulder1  0 -2.42657e-020 -4.95415e-022
LeftArm  -25.6826 -16.7249 -83.2433
LeftForeArm  19.8185 -39.8676 -8.46998
LeftHand  0.0172994 -6.85589 -0.659412
RightShoulder  0 2.42657e-020 1.07489e-018
RightArm  -43.8514 24.5036 68.6552
RightForeArm  14.3985 47.0965 10.9533
RightHand  -0.0336561 20.2709 0.181797
LeftUpLeg  -63.8121 14.2524 1.00525
LeftLeg  52.1351 -2.00017 -2.26344
LeftFoot  0.148238 0.000412897 -0.319196
LeftToes  -6.73106 2.34596e-006 -6.06653e-008
313
root  -18.234 30.4877 0.10925 14.3698 31.8584 -4.66336
RightUpLeg  -43.4443 7.05639 -9.76879
RightLeg  51.3306 -12.313 -13.2022
RightFoot  -11.9117 0.405835 4.26642
RightToes  -16.1902 -0.0612541 -0.145507
Spine  17.0759 -0.218145 2.35604
Spine1  30.8353 2.27439 -0.975702
HEad  5.50289 25.341 -16.29
LeftShoulder1  0 -2.42657e-020 -4.95415e-022
LeftArm  -31.631 -10.1725 -82.3146
LeftForeArm  19.8697 -41.2944 -8.9132
LeftHand  -0.00268836 -6.63011 -0.323878
RightShoulder  0 2.42657e-020 1.07489e-018
RightArm  -37.113 21.4357 74.1492
RightForeArm  28.5562 53.849 14.0116
RightHand  -2.28954 23.5437 -10.5871
LeftUpLeg  -57.1682 14.2632 -1.22301
LeftLeg  47.0095 -2.9683 -2.80315
LeftFoot  1.08484 0.000846915 -0.0894661
LeftToes  -4.10453 2.34596e-006 -6.06653e-008
314
root  -17.2585 31.2033 0.130519 12.3201 31.9292 -4.0085
RightUpLeg  -39.1871 0.343456 -2.44756
RightLeg  49.8926 -6.98941 -7.27536
RightFoot  -12.2825 0.223725 2.45674
RightToes  -29.053 -0.137454 -0.245331
Spine  16.2997 -0.603603 1.43648
Spine1  29.9221 1.52502 -2.8389
HEad  8.54963 27.3409 -16.7607
LeftShoulder1  0 -2.42657e-020 -4.95415e-022
LeftArm  -36.3174 -5.49816 -83.3047
LeftForeArm  19.0375 -42.0366 -9.15148
LeftHand  0.00152397 -6.2183 -0.39845
RightShoulder  0 2.42657e-020 1.07489e-018
RightArm  -30.2692 19.7583 78.3869
RightForeArm  48.972 62.7508 20.1089
RightHand  -4.39962 23.9499 -20.1659
LeftUpLeg  -51.5197 15.8265 -3.24588
LeftLeg  42.8172 -4.63483 -3.7677
LeftFoot  2.15464 0.00103629 -0.0551162
LeftToes  -1.36241 2.34596e-006 -6.06653e-008
315
root  -16.4135 31.6167 0.0755647 11.6399 32.0692 -2.49379
RightUpLeg  -36.4659 -3.79039 2.35357
RightLeg  49.1522 1.02947 1.00251
RightFoot  -11.7414 -0.044783 -0.0579876
RightToes  -45.698 -0.265525 -0.344995
Spine  15.402 -0.51029 0.757431
Spine1  28.3369 1.69504 -4.22272
HEad  13.4445 27.3597 -16.5344
LeftShoulder1  0 -2.42657e-020 -4.95415e-022
LeftArm  -38.928 -1.89542 -85.2583
LeftForeArm  16.4804 -42.0747 -9.16262
LeftHand  0.00107737 -5.53845 -0.39272
RightShoulder  0 2.42657e-020 1.07489e-018
RightArm  -23.3145 19.5225 80.8726
RightForeArm  66.3414 70.1641 29.4227
RightHand  -5.2628 25.4695 -22.6252
LeftUpLeg  -48.9714 17.8613 -6.13142
LeftLeg  41.8035 -6.92257 -5.40855
LeftFoot  3.993 0.0105999 -0.304084
LeftToes  -0.122966 2.34596e-006 -6.06653e-008
316
root  -15.569 31.6587 -0.0976439 11.9894 32.9257 0.185669
RightUpLeg  -33.9951 -4.88218 3.47369
RightLeg  48.7206 8.68977 8.56536
RightFoot  -11.1839 -0.248892 -2.16425
RightToes  -50.1579 -0.304278 -0.365029
Spine  14.8884 0.00570103 0.101023
Spine1  27.2202 2.6764 -5.12277
HEad  17.4428 25.2107 -15.0761
LeftShoulder1  0 -2.42657e-020 -4.95415e-022
LeftArm  -38.2478 -0.846505 -86.9978
LeftForeArm  15.3108 -41.4121 -8.94841
LeftHand  0.0247303 -5.87085 -0.853246
RightShoulder  0 2.42657e-020 1.07489e-018
RightArm  -16.2123 21.7348 81.2944
RightForeArm  81.4892 73.0643 35.5588
RightHand  -5.37797 25.3167 -23.2578
LeftUpLeg  -49.5497 17.3876 -8.36373
LeftLeg  46.1295 -9.85257 -8.90155
LeftFoot  7.54155 0.0850647 -1.29062
LeftToes  -3.87651 2.34596e-006 -6.06653e-008
